<svg xmlns="http://www.w3.org/2000/svg" version="1.1" xmlns:xlink="http://www.w3.org/1999/xlink" width="512" height="512" x="0" y="0" viewBox="0 0 512 512" style="enable-background:new 0 0 512 512" xml:space="preserve" class=""><g><linearGradient id="a" x1="6" x2="506" y1="256" y2="256" gradientUnits="userSpaceOnUse"><stop offset="0" stop-color="#2bc4f3"></stop><stop offset=".5" stop-color="#00aeee"></stop><stop offset="1" stop-color="#0095da"></stop></linearGradient><linearGradient id="b" x1="217.288" x2="446.657" y1="189.516" y2="418.886" gradientUnits="userSpaceOnUse"><stop offset="0"></stop><stop offset="1" stop-opacity="0"></stop></linearGradient><circle cx="256" cy="256" r="250" fill="url(#a)" opacity="1" data-original="url(#a)" class=""></circle><path fill="url(#b)49" d="M505.673 268.885 358.219 121.43h-72.845v168.808c0 18.937-10.313 31.273-25.553 32.856l-33.194-39.5h-72.846v10.339c0 28.05 10.216 51.879 27.781 68.858l135.649 135.647c104.47-26.294 182.816-118.327 188.462-229.553z" opacity="1" data-original="url(#b)49" class=""></path><path fill="#ffffff" d="M153.781 293.932v-10.339h72.846v6.645c0 20.093 11.86 33.034 29.805 33.034 17.081 0 28.942-12.724 28.942-33.034V121.43h72.845v172.5c0 56.888-40.959 96.638-101.787 96.638-60.398.002-102.651-39.591-102.651-96.636z" opacity="1" data-original="#ffffff" class=""></path></g></svg>
